<?xml version="1.0" encoding="utf-8" standalone="no"?>
<!DOCTYPE svg PUBLIC "-//W3C//DTD SVG 1.1//EN"
  "http://www.w3.org/Graphics/SVG/1.1/DTD/svg11.dtd">
<svg xmlns:xlink="http://www.w3.org/1999/xlink" width="864pt" height="288pt" viewBox="0 0 864 288" xmlns="http://www.w3.org/2000/svg" version="1.1">
 <metadata>
  <rdf:RDF xmlns:dc="http://purl.org/dc/elements/1.1/" xmlns:cc="http://creativecommons.org/ns#" xmlns:rdf="http://www.w3.org/1999/02/22-rdf-syntax-ns#">
   <cc:Work>
    <dc:type rdf:resource="http://purl.org/dc/dcmitype/StillImage"/>
    <dc:date>2025-12-10T14:36:12.672218</dc:date>
    <dc:format>image/svg+xml</dc:format>
    <dc:creator>
     <cc:Agent>
      <dc:title>Matplotlib v3.7.2, https://matplotlib.org/</dc:title>
     </cc:Agent>
    </dc:creator>
   </cc:Work>
  </rdf:RDF>
 </metadata>
 <defs>
  <style type="text/css">*{stroke-linejoin: round; stroke-linecap: butt}</style>
 </defs>
 <g id="figure_1">
  <g id="patch_1">
   <path d="M 0 288 
L 864 288 
L 864 0 
L 0 0 
z
" style="fill: #ffffff"/>
  </g>
  <g id="axes_1">
   <g id="patch_2">
    <path d="M 44.66 242.728 
L 429.795 242.728 
L 429.795 30.624 
L 44.66 30.624 
z
" style="fill: #ffffff"/>
   </g>
   <g id="patch_3">
    <path d="M 62.166136 242.728 
L 69.168591 242.728 
L 69.168591 234.311175 
L 62.166136 234.311175 
z
" clip-path="url(#p32bcaf16c1)" style="fill: #87ceeb; stroke: #000000; stroke-linejoin: miter"/>
   </g>
   <g id="patch_4">
    <path d="M 69.168591 242.728 
L 76.171045 242.728 
L 76.171045 242.728 
L 69.168591 242.728 
z
" clip-path="url(#p32bcaf16c1)" style="fill: #87ceeb; stroke: #000000; stroke-linejoin: miter"/>
   </g>
   <g id="patch_5">
    <path d="M 76.171045 242.728 
L 83.1735 242.728 
L 83.1735 242.728 
L 76.171045 242.728 
z
" clip-path="url(#p32bcaf16c1)" style="fill: #87ceeb; stroke: #000000; stroke-linejoin: miter"/>
   </g>
   <g id="patch_6">
    <path d="M 83.1735 242.728 
L 90.175955 242.728 
L 90.175955 242.728 
L 83.1735 242.728 
z
" clip-path="url(#p32bcaf16c1)" style="fill: #87ceeb; stroke: #000000; stroke-linejoin: miter"/>
   </g>
   <g id="patch_7">
    <path d="M 90.175955 242.728 
L 97.178409 242.728 
L 97.178409 242.728 
L 90.175955 242.728 
z
" clip-path="url(#p32bcaf16c1)" style="fill: #87ceeb; stroke: #000000; stroke-linejoin: miter"/>
   </g>
   <g id="patch_8">
    <path d="M 97.178409 242.728 
L 104.180864 242.728 
L 104.180864 242.728 
L 97.178409 242.728 
z
" clip-path="url(#p32bcaf16c1)" style="fill: #87ceeb; stroke: #000000; stroke-linejoin: miter"/>
   </g>
   <g id="patch_9">
    <path d="M 104.180864 242.728 
L 111.183318 242.728 
L 111.183318 242.728 
L 104.180864 242.728 
z
" clip-path="url(#p32bcaf16c1)" style="fill: #87ceeb; stroke: #000000; stroke-linejoin: miter"/>
   </g>
   <g id="patch_10">
    <path d="M 111.183318 242.728 
L 118.185773 242.728 
L 118.185773 242.728 
L 111.183318 242.728 
z
" clip-path="url(#p32bcaf16c1)" style="fill: #87ceeb; stroke: #000000; stroke-linejoin: miter"/>
   </g>
   <g id="patch_11">
    <path d="M 118.185773 242.728 
L 125.188227 242.728 
L 125.188227 242.728 
L 118.185773 242.728 
z
" clip-path="url(#p32bcaf16c1)" style="fill: #87ceeb; stroke: #000000; stroke-linejoin: miter"/>
   </g>
   <g id="patch_12">
    <path d="M 125.188227 242.728 
L 132.190682 242.728 
L 132.190682 242.728 
L 125.188227 242.728 
z
" clip-path="url(#p32bcaf16c1)" style="fill: #87ceeb; stroke: #000000; stroke-linejoin: miter"/>
   </g>
   <g id="patch_13">
    <path d="M 132.190682 242.728 
L 139.193136 242.728 
L 139.193136 242.728 
L 132.190682 242.728 
z
" clip-path="url(#p32bcaf16c1)" style="fill: #87ceeb; stroke: #000000; stroke-linejoin: miter"/>
   </g>
   <g id="patch_14">
    <path d="M 139.193136 242.728 
L 146.195591 242.728 
L 146.195591 242.728 
L 139.193136 242.728 
z
" clip-path="url(#p32bcaf16c1)" style="fill: #87ceeb; stroke: #000000; stroke-linejoin: miter"/>
   </g>
   <g id="patch_15">
    <path d="M 146.195591 242.728 
L 153.198045 242.728 
L 153.198045 242.728 
L 146.195591 242.728 
z
" clip-path="url(#p32bcaf16c1)" style="fill: #87ceeb; stroke: #000000; stroke-linejoin: miter"/>
   </g>
   <g id="patch_16">
    <path d="M 153.198045 242.728 
L 160.2005 242.728 
L 160.2005 242.728 
L 153.198045 242.728 
z
" clip-path="url(#p32bcaf16c1)" style="fill: #87ceeb; stroke: #000000; stroke-linejoin: miter"/>
   </g>
   <g id="patch_17">
    <path d="M 160.2005 242.728 
L 167.202955 242.728 
L 167.202955 242.728 
L 160.2005 242.728 
z
" clip-path="url(#p32bcaf16c1)" style="fill: #87ceeb; stroke: #000000; stroke-linejoin: miter"/>
   </g>
   <g id="patch_18">
    <path d="M 167.202955 242.728 
L 174.205409 242.728 
L 174.205409 242.728 
L 167.202955 242.728 
z
" clip-path="url(#p32bcaf16c1)" style="fill: #87ceeb; stroke: #000000; stroke-linejoin: miter"/>
   </g>
   <g id="patch_19">
    <path d="M 174.205409 242.728 
L 181.207864 242.728 
L 181.207864 242.728 
L 174.205409 242.728 
z
" clip-path="url(#p32bcaf16c1)" style="fill: #87ceeb; stroke: #000000; stroke-linejoin: miter"/>
   </g>
   <g id="patch_20">
    <path d="M 181.207864 242.728 
L 188.210318 242.728 
L 188.210318 242.728 
L 181.207864 242.728 
z
" clip-path="url(#p32bcaf16c1)" style="fill: #87ceeb; stroke: #000000; stroke-linejoin: miter"/>
   </g>
   <g id="patch_21">
    <path d="M 188.210318 242.728 
L 195.212773 242.728 
L 195.212773 242.728 
L 188.210318 242.728 
z
" clip-path="url(#p32bcaf16c1)" style="fill: #87ceeb; stroke: #000000; stroke-linejoin: miter"/>
   </g>
   <g id="patch_22">
    <path d="M 195.212773 242.728 
L 202.215227 242.728 
L 202.215227 242.728 
L 195.212773 242.728 
z
" clip-path="url(#p32bcaf16c1)" style="fill: #87ceeb; stroke: #000000; stroke-linejoin: miter"/>
   </g>
   <g id="patch_23">
    <path d="M 202.215227 242.728 
L 209.217682 242.728 
L 209.217682 242.728 
L 202.215227 242.728 
z
" clip-path="url(#p32bcaf16c1)" style="fill: #87ceeb; stroke: #000000; stroke-linejoin: miter"/>
   </g>
   <g id="patch_24">
    <path d="M 209.217682 242.728 
L 216.220136 242.728 
L 216.220136 242.728 
L 209.217682 242.728 
z
" clip-path="url(#p32bcaf16c1)" style="fill: #87ceeb; stroke: #000000; stroke-linejoin: miter"/>
   </g>
   <g id="patch_25">
    <path d="M 216.220136 242.728 
L 223.222591 242.728 
L 223.222591 242.728 
L 216.220136 242.728 
z
" clip-path="url(#p32bcaf16c1)" style="fill: #87ceeb; stroke: #000000; stroke-linejoin: miter"/>
   </g>
   <g id="patch_26">
    <path d="M 223.222591 242.728 
L 230.225045 242.728 
L 230.225045 242.728 
L 223.222591 242.728 
z
" clip-path="url(#p32bcaf16c1)" style="fill: #87ceeb; stroke: #000000; stroke-linejoin: miter"/>
   </g>
   <g id="patch_27">
    <path d="M 230.225045 242.728 
L 237.2275 242.728 
L 237.2275 242.728 
L 230.225045 242.728 
z
" clip-path="url(#p32bcaf16c1)" style="fill: #87ceeb; stroke: #000000; stroke-linejoin: miter"/>
   </g>
   <g id="patch_28">
    <path d="M 237.2275 242.728 
L 244.229955 242.728 
L 244.229955 242.728 
L 237.2275 242.728 
z
" clip-path="url(#p32bcaf16c1)" style="fill: #87ceeb; stroke: #000000; stroke-linejoin: miter"/>
   </g>
   <g id="patch_29">
    <path d="M 244.229955 242.728 
L 251.232409 242.728 
L 251.232409 242.728 
L 244.229955 242.728 
z
" clip-path="url(#p32bcaf16c1)" style="fill: #87ceeb; stroke: #000000; stroke-linejoin: miter"/>
   </g>
   <g id="patch_30">
    <path d="M 251.232409 242.728 
L 258.234864 242.728 
L 258.234864 242.728 
L 251.232409 242.728 
z
" clip-path="url(#p32bcaf16c1)" style="fill: #87ceeb; stroke: #000000; stroke-linejoin: miter"/>
   </g>
   <g id="patch_31">
    <path d="M 258.234864 242.728 
L 265.237318 242.728 
L 265.237318 242.728 
L 258.234864 242.728 
z
" clip-path="url(#p32bcaf16c1)" style="fill: #87ceeb; stroke: #000000; stroke-linejoin: miter"/>
   </g>
   <g id="patch_32">
    <path d="M 265.237318 242.728 
L 272.239773 242.728 
L 272.239773 242.728 
L 265.237318 242.728 
z
" clip-path="url(#p32bcaf16c1)" style="fill: #87ceeb; stroke: #000000; stroke-linejoin: miter"/>
   </g>
   <g id="patch_33">
    <path d="M 272.239773 242.728 
L 279.242227 242.728 
L 279.242227 242.728 
L 272.239773 242.728 
z
" clip-path="url(#p32bcaf16c1)" style="fill: #87ceeb; stroke: #000000; stroke-linejoin: miter"/>
   </g>
   <g id="patch_34">
    <path d="M 279.242227 242.728 
L 286.244682 242.728 
L 286.244682 242.728 
L 279.242227 242.728 
z
" clip-path="url(#p32bcaf16c1)" style="fill: #87ceeb; stroke: #000000; stroke-linejoin: miter"/>
   </g>
   <g id="patch_35">
    <path d="M 286.244682 242.728 
L 293.247136 242.728 
L 293.247136 242.728 
L 286.244682 242.728 
z
" clip-path="url(#p32bcaf16c1)" style="fill: #87ceeb; stroke: #000000; stroke-linejoin: miter"/>
   </g>
   <g id="patch_36">
    <path d="M 293.247136 242.728 
L 300.249591 242.728 
L 300.249591 242.728 
L 293.247136 242.728 
z
" clip-path="url(#p32bcaf16c1)" style="fill: #87ceeb; stroke: #000000; stroke-linejoin: miter"/>
   </g>
   <g id="patch_37">
    <path d="M 300.249591 242.728 
L 307.252045 242.728 
L 307.252045 242.728 
L 300.249591 242.728 
z
" clip-path="url(#p32bcaf16c1)" style="fill: #87ceeb; stroke: #000000; stroke-linejoin: miter"/>
   </g>
   <g id="patch_38">
    <path d="M 307.252045 242.728 
L 314.2545 242.728 
L 314.2545 242.728 
L 307.252045 242.728 
z
" clip-path="url(#p32bcaf16c1)" style="fill: #87ceeb; stroke: #000000; stroke-linejoin: miter"/>
   </g>
   <g id="patch_39">
    <path d="M 314.2545 242.728 
L 321.256955 242.728 
L 321.256955 242.728 
L 314.2545 242.728 
z
" clip-path="url(#p32bcaf16c1)" style="fill: #87ceeb; stroke: #000000; stroke-linejoin: miter"/>
   </g>
   <g id="patch_40">
    <path d="M 321.256955 242.728 
L 328.259409 242.728 
L 328.259409 242.728 
L 321.256955 242.728 
z
" clip-path="url(#p32bcaf16c1)" style="fill: #87ceeb; stroke: #000000; stroke-linejoin: miter"/>
   </g>
   <g id="patch_41">
    <path d="M 328.259409 242.728 
L 335.261864 242.728 
L 335.261864 242.728 
L 328.259409 242.728 
z
" clip-path="url(#p32bcaf16c1)" style="fill: #87ceeb; stroke: #000000; stroke-linejoin: miter"/>
   </g>
   <g id="patch_42">
    <path d="M 335.261864 242.728 
L 342.264318 242.728 
L 342.264318 242.728 
L 335.261864 242.728 
z
" clip-path="url(#p32bcaf16c1)" style="fill: #87ceeb; stroke: #000000; stroke-linejoin: miter"/>
   </g>
   <g id="patch_43">
    <path d="M 342.264318 242.728 
L 349.266773 242.728 
L 349.266773 242.728 
L 342.264318 242.728 
z
" clip-path="url(#p32bcaf16c1)" style="fill: #87ceeb; stroke: #000000; stroke-linejoin: miter"/>
   </g>
   <g id="patch_44">
    <path d="M 349.266773 242.728 
L 356.269227 242.728 
L 356.269227 242.728 
L 349.266773 242.728 
z
" clip-path="url(#p32bcaf16c1)" style="fill: #87ceeb; stroke: #000000; stroke-linejoin: miter"/>
   </g>
   <g id="patch_45">
    <path d="M 356.269227 242.728 
L 363.271682 242.728 
L 363.271682 242.728 
L 356.269227 242.728 
z
" clip-path="url(#p32bcaf16c1)" style="fill: #87ceeb; stroke: #000000; stroke-linejoin: miter"/>
   </g>
   <g id="patch_46">
    <path d="M 363.271682 242.728 
L 370.274136 242.728 
L 370.274136 242.728 
L 363.271682 242.728 
z
" clip-path="url(#p32bcaf16c1)" style="fill: #87ceeb; stroke: #000000; stroke-linejoin: miter"/>
   </g>
   <g id="patch_47">
    <path d="M 370.274136 242.728 
L 377.276591 242.728 
L 377.276591 242.728 
L 370.274136 242.728 
z
" clip-path="url(#p32bcaf16c1)" style="fill: #87ceeb; stroke: #000000; stroke-linejoin: miter"/>
   </g>
   <g id="patch_48">
    <path d="M 377.276591 242.728 
L 384.279045 242.728 
L 384.279045 242.728 
L 377.276591 242.728 
z
" clip-path="url(#p32bcaf16c1)" style="fill: #87ceeb; stroke: #000000; stroke-linejoin: miter"/>
   </g>
   <g id="patch_49">
    <path d="M 384.279045 242.728 
L 391.2815 242.728 
L 391.2815 225.894349 
L 384.279045 225.894349 
z
" clip-path="url(#p32bcaf16c1)" style="fill: #87ceeb; stroke: #000000; stroke-linejoin: miter"/>
   </g>
   <g id="patch_50">
    <path d="M 391.2815 242.728 
L 398.283955 242.728 
L 398.283955 40.72419 
L 391.2815 40.72419 
z
" clip-path="url(#p32bcaf16c1)" style="fill: #87ceeb; stroke: #000000; stroke-linejoin: miter"/>
   </g>
   <g id="patch_51">
    <path d="M 398.283955 242.728 
L 405.286409 242.728 
L 405.286409 99.641968 
L 398.283955 99.641968 
z
" clip-path="url(#p32bcaf16c1)" style="fill: #87ceeb; stroke: #000000; stroke-linejoin: miter"/>
   </g>
   <g id="patch_52">
    <path d="M 405.286409 242.728 
L 412.288864 242.728 
L 412.288864 192.227048 
L 405.286409 192.227048 
z
" clip-path="url(#p32bcaf16c1)" style="fill: #87ceeb; stroke: #000000; stroke-linejoin: miter"/>
   </g>
   <g id="matplotlib.axis_1">
    <g id="xtick_1">
     <g id="line2d_1">
      <defs>
       <path id="mea2ac4070a" d="M 0 0 
L 0 3.5 
" style="stroke: #000000; stroke-width: 0.8"/>
      </defs>
      <g>
       <use xlink:href="#mea2ac4070a" x="62.166136" y="242.728" style="stroke: #000000; stroke-width: 0.8"/>
      </g>
     </g>
     <g id="text_1">
      <!-- 1 -->
      <g transform="translate(58.984886 257.326437) scale(0.1 -0.1)">
       <defs>
        <path id="DejaVuSans-31" d="M 794 531 
L 1825 531 
L 1825 4091 
L 703 3866 
L 703 4441 
L 1819 4666 
L 2450 4666 
L 2450 531 
L 3481 531 
L 3481 0 
L 794 0 
L 794 531 
z
" transform="scale(0.015625)"/>
       </defs>
       <use xlink:href="#DejaVuSans-31"/>
      </g>
     </g>
    </g>
    <g id="xtick_2">
     <g id="line2d_2">
      <g>
       <use xlink:href="#mea2ac4070a" x="145.95438" y="242.728" style="stroke: #000000; stroke-width: 0.8"/>
      </g>
     </g>
     <g id="text_2">
      <!-- 2 -->
      <g transform="translate(142.77313 257.326437) scale(0.1 -0.1)">
       <defs>
        <path id="DejaVuSans-32" d="M 1228 531 
L 3431 531 
L 3431 0 
L 469 0 
L 469 531 
Q 828 903 1448 1529 
Q 2069 2156 2228 2338 
Q 2531 2678 2651 2914 
Q 2772 3150 2772 3378 
Q 2772 3750 2511 3984 
Q 2250 4219 1831 4219 
Q 1534 4219 1204 4116 
Q 875 4013 500 3803 
L 500 4441 
Q 881 4594 1212 4672 
Q 1544 4750 1819 4750 
Q 2544 4750 2975 4387 
Q 3406 4025 3406 3419 
Q 3406 3131 3298 2873 
Q 3191 2616 2906 2266 
Q 2828 2175 2409 1742 
Q 1991 1309 1228 531 
z
" transform="scale(0.015625)"/>
       </defs>
       <use xlink:href="#DejaVuSans-32"/>
      </g>
     </g>
    </g>
    <g id="xtick_3">
     <g id="line2d_3">
      <g>
       <use xlink:href="#mea2ac4070a" x="229.742623" y="242.728" style="stroke: #000000; stroke-width: 0.8"/>
      </g>
     </g>
     <g id="text_3">
      <!-- 3 -->
      <g transform="translate(226.561373 257.326437) scale(0.1 -0.1)">
       <defs>
        <path id="DejaVuSans-33" d="M 2597 2516 
Q 3050 2419 3304 2112 
Q 3559 1806 3559 1356 
Q 3559 666 3084 287 
Q 2609 -91 1734 -91 
Q 1441 -91 1130 -33 
Q 819 25 488 141 
L 488 750 
Q 750 597 1062 519 
Q 1375 441 1716 441 
Q 2309 441 2620 675 
Q 2931 909 2931 1356 
Q 2931 1769 2642 2001 
Q 2353 2234 1838 2234 
L 1294 2234 
L 1294 2753 
L 1863 2753 
Q 2328 2753 2575 2939 
Q 2822 3125 2822 3475 
Q 2822 3834 2567 4026 
Q 2313 4219 1838 4219 
Q 1578 4219 1281 4162 
Q 984 4106 628 3988 
L 628 4550 
Q 988 4650 1302 4700 
Q 1616 4750 1894 4750 
Q 2613 4750 3031 4423 
Q 3450 4097 3450 3541 
Q 3450 3153 3228 2886 
Q 3006 2619 2597 2516 
z
" transform="scale(0.015625)"/>
       </defs>
       <use xlink:href="#DejaVuSans-33"/>
      </g>
     </g>
    </g>
    <g id="xtick_4">
     <g id="line2d_4">
      <g>
       <use xlink:href="#mea2ac4070a" x="313.530867" y="242.728" style="stroke: #000000; stroke-width: 0.8"/>
      </g>
     </g>
     <g id="text_4">
      <!-- 4 -->
      <g transform="translate(310.349617 257.326437) scale(0.1 -0.1)">
       <defs>
        <path id="DejaVuSans-34" d="M 2419 4116 
L 825 1625 
L 2419 1625 
L 2419 4116 
z
M 2253 4666 
L 3047 4666 
L 3047 1625 
L 3713 1625 
L 3713 1100 
L 3047 1100 
L 3047 0 
L 2419 0 
L 2419 1100 
L 313 1100 
L 313 1709 
L 2253 4666 
z
" transform="scale(0.015625)"/>
       </defs>
       <use xlink:href="#DejaVuSans-34"/>
      </g>
     </g>
    </g>
    <g id="xtick_5">
     <g id="line2d_5">
      <g>
       <use xlink:href="#mea2ac4070a" x="397.319111" y="242.728" style="stroke: #000000; stroke-width: 0.8"/>
      </g>
     </g>
     <g id="text_5">
      <!-- 5 -->
      <g transform="translate(394.137861 257.326437) scale(0.1 -0.1)">
       <defs>
        <path id="DejaVuSans-35" d="M 691 4666 
L 3169 4666 
L 3169 4134 
L 1269 4134 
L 1269 2991 
Q 1406 3038 1543 3061 
Q 1681 3084 1819 3084 
Q 2600 3084 3056 2656 
Q 3513 2228 3513 1497 
Q 3513 744 3044 326 
Q 2575 -91 1722 -91 
Q 1428 -91 1123 -41 
Q 819 9 494 109 
L 494 744 
Q 775 591 1075 516 
Q 1375 441 1709 441 
Q 2250 441 2565 725 
Q 2881 1009 2881 1497 
Q 2881 1984 2565 2268 
Q 2250 2553 1709 2553 
Q 1456 2553 1204 2497 
Q 953 2441 691 2322 
L 691 4666 
z
" transform="scale(0.015625)"/>
       </defs>
       <use xlink:href="#DejaVuSans-35"/>
      </g>
     </g>
    </g>
    <g id="text_6">
     <!-- $\mu$ value -->
     <g transform="translate(218.7775 271.006125) scale(0.1 -0.1)">
      <defs>
       <path id="DejaVuSans-Oblique-3bc" d="M -84 -1331 
L 856 3500 
L 1434 3500 
L 1009 1322 
Q 997 1256 987 1175 
Q 978 1094 978 1013 
Q 978 722 1161 565 
Q 1344 409 1684 409 
Q 2147 409 2431 671 
Q 2716 934 2816 1459 
L 3213 3500 
L 3788 3500 
L 3266 809 
Q 3253 750 3248 706 
Q 3244 663 3244 628 
Q 3244 531 3283 486 
Q 3322 441 3406 441 
Q 3438 441 3492 456 
Q 3547 472 3647 513 
L 3559 50 
Q 3422 -19 3297 -55 
Q 3172 -91 3053 -91 
Q 2847 -91 2730 40 
Q 2613 172 2613 403 
Q 2438 153 2195 31 
Q 1953 -91 1625 -91 
Q 1334 -91 1117 43 
Q 900 178 831 397 
L 494 -1331 
L -84 -1331 
z
" transform="scale(0.015625)"/>
       <path id="DejaVuSans-20" transform="scale(0.015625)"/>
       <path id="DejaVuSans-76" d="M 191 3500 
L 800 3500 
L 1894 563 
L 2988 3500 
L 3597 3500 
L 2284 0 
L 1503 0 
L 191 3500 
z
" transform="scale(0.015625)"/>
       <path id="DejaVuSans-61" d="M 2194 1759 
Q 1497 1759 1228 1600 
Q 959 1441 959 1056 
Q 959 750 1161 570 
Q 1363 391 1709 391 
Q 2188 391 2477 730 
Q 2766 1069 2766 1631 
L 2766 1759 
L 2194 1759 
z
M 3341 1997 
L 3341 0 
L 2766 0 
L 2766 531 
Q 2569 213 2275 61 
Q 1981 -91 1556 -91 
Q 1019 -91 701 211 
Q 384 513 384 1019 
Q 384 1609 779 1909 
Q 1175 2209 1959 2209 
L 2766 2209 
L 2766 2266 
Q 2766 2663 2505 2880 
Q 2244 3097 1772 3097 
Q 1472 3097 1187 3025 
Q 903 2953 641 2809 
L 641 3341 
Q 956 3463 1253 3523 
Q 1550 3584 1831 3584 
Q 2591 3584 2966 3190 
Q 3341 2797 3341 1997 
z
" transform="scale(0.015625)"/>
       <path id="DejaVuSans-6c" d="M 603 4863 
L 1178 4863 
L 1178 0 
L 603 0 
L 603 4863 
z
" transform="scale(0.015625)"/>
       <path id="DejaVuSans-75" d="M 544 1381 
L 544 3500 
L 1119 3500 
L 1119 1403 
Q 1119 906 1312 657 
Q 1506 409 1894 409 
Q 2359 409 2629 706 
Q 2900 1003 2900 1516 
L 2900 3500 
L 3475 3500 
L 3475 0 
L 2900 0 
L 2900 538 
Q 2691 219 2414 64 
Q 2138 -91 1772 -91 
Q 1169 -91 856 284 
Q 544 659 544 1381 
z
M 1991 3584 
L 1991 3584 
z
" transform="scale(0.015625)"/>
       <path id="DejaVuSans-65" d="M 3597 1894 
L 3597 1613 
L 953 1613 
Q 991 1019 1311 708 
Q 1631 397 2203 397 
Q 2534 397 2845 478 
Q 3156 559 3463 722 
L 3463 178 
Q 3153 47 2828 -22 
Q 2503 -91 2169 -91 
Q 1331 -91 842 396 
Q 353 884 353 1716 
Q 353 2575 817 3079 
Q 1281 3584 2069 3584 
Q 2775 3584 3186 3129 
Q 3597 2675 3597 1894 
z
M 3022 2063 
Q 3016 2534 2758 2815 
Q 2500 3097 2075 3097 
Q 1594 3097 1305 2825 
Q 1016 2553 972 2059 
L 3022 2063 
z
" transform="scale(0.015625)"/>
      </defs>
      <use xlink:href="#DejaVuSans-Oblique-3bc" transform="translate(0 0.015625)"/>
      <use xlink:href="#DejaVuSans-20" transform="translate(63.623047 0.015625)"/>
      <use xlink:href="#DejaVuSans-76" transform="translate(95.410156 0.015625)"/>
      <use xlink:href="#DejaVuSans-61" transform="translate(154.589844 0.015625)"/>
      <use xlink:href="#DejaVuSans-6c" transform="translate(215.869141 0.015625)"/>
      <use xlink:href="#DejaVuSans-75" transform="translate(243.652344 0.015625)"/>
      <use xlink:href="#DejaVuSans-65" transform="translate(307.03125 0.015625)"/>
     </g>
    </g>
   </g>
   <g id="matplotlib.axis_2">
    <g id="ytick_1">
     <g id="line2d_6">
      <defs>
       <path id="m4ae1ef5718" d="M 0 0 
L -3.5 0 
" style="stroke: #000000; stroke-width: 0.8"/>
      </defs>
      <g>
       <use xlink:href="#m4ae1ef5718" x="44.66" y="242.728" style="stroke: #000000; stroke-width: 0.8"/>
      </g>
     </g>
     <g id="text_7">
      <!-- 0 -->
      <g transform="translate(31.2975 246.527219) scale(0.1 -0.1)">
       <defs>
        <path id="DejaVuSans-30" d="M 2034 4250 
Q 1547 4250 1301 3770 
Q 1056 3291 1056 2328 
Q 1056 1369 1301 889 
Q 1547 409 2034 409 
Q 2525 409 2770 889 
Q 3016 1369 3016 2328 
Q 3016 3291 2770 3770 
Q 2525 4250 2034 4250 
z
M 2034 4750 
Q 2819 4750 3233 4129 
Q 3647 3509 3647 2328 
Q 3647 1150 3233 529 
Q 2819 -91 2034 -91 
Q 1250 -91 836 529 
Q 422 1150 422 2328 
Q 422 3509 836 4129 
Q 1250 4750 2034 4750 
z
" transform="scale(0.015625)"/>
       </defs>
       <use xlink:href="#DejaVuSans-30"/>
      </g>
     </g>
    </g>
    <g id="ytick_2">
     <g id="line2d_7">
      <g>
       <use xlink:href="#m4ae1ef5718" x="44.66" y="200.643873" style="stroke: #000000; stroke-width: 0.8"/>
      </g>
     </g>
     <g id="text_8">
      <!-- 5 -->
      <g transform="translate(31.2975 204.443092) scale(0.1 -0.1)">
       <use xlink:href="#DejaVuSans-35"/>
      </g>
     </g>
    </g>
    <g id="ytick_3">
     <g id="line2d_8">
      <g>
       <use xlink:href="#m4ae1ef5718" x="44.66" y="158.559746" style="stroke: #000000; stroke-width: 0.8"/>
      </g>
     </g>
     <g id="text_9">
      <!-- 10 -->
      <g transform="translate(24.935 162.358965) scale(0.1 -0.1)">
       <use xlink:href="#DejaVuSans-31"/>
       <use xlink:href="#DejaVuSans-30" x="63.623047"/>
      </g>
     </g>
    </g>
    <g id="ytick_4">
     <g id="line2d_9">
      <g>
       <use xlink:href="#m4ae1ef5718" x="44.66" y="116.475619" style="stroke: #000000; stroke-width: 0.8"/>
      </g>
     </g>
     <g id="text_10">
      <!-- 15 -->
      <g transform="translate(24.935 120.274838) scale(0.1 -0.1)">
       <use xlink:href="#DejaVuSans-31"/>
       <use xlink:href="#DejaVuSans-35" x="63.623047"/>
      </g>
     </g>
    </g>
    <g id="ytick_5">
     <g id="line2d_10">
      <g>
       <use xlink:href="#m4ae1ef5718" x="44.66" y="74.391492" style="stroke: #000000; stroke-width: 0.8"/>
      </g>
     </g>
     <g id="text_11">
      <!-- 20 -->
      <g transform="translate(24.935 78.190711) scale(0.1 -0.1)">
       <use xlink:href="#DejaVuSans-32"/>
       <use xlink:href="#DejaVuSans-30" x="63.623047"/>
      </g>
     </g>
    </g>
    <g id="ytick_6">
     <g id="line2d_11">
      <g>
       <use xlink:href="#m4ae1ef5718" x="44.66" y="32.307365" style="stroke: #000000; stroke-width: 0.8"/>
      </g>
     </g>
     <g id="text_12">
      <!-- 25 -->
      <g transform="translate(24.935 36.106584) scale(0.1 -0.1)">
       <use xlink:href="#DejaVuSans-32"/>
       <use xlink:href="#DejaVuSans-35" x="63.623047"/>
      </g>
     </g>
    </g>
    <g id="text_13">
     <!-- Count -->
     <g transform="translate(18.855313 151.524437) rotate(-90) scale(0.1 -0.1)">
      <defs>
       <path id="DejaVuSans-43" d="M 4122 4306 
L 4122 3641 
Q 3803 3938 3442 4084 
Q 3081 4231 2675 4231 
Q 1875 4231 1450 3742 
Q 1025 3253 1025 2328 
Q 1025 1406 1450 917 
Q 1875 428 2675 428 
Q 3081 428 3442 575 
Q 3803 722 4122 1019 
L 4122 359 
Q 3791 134 3420 21 
Q 3050 -91 2638 -91 
Q 1578 -91 968 557 
Q 359 1206 359 2328 
Q 359 3453 968 4101 
Q 1578 4750 2638 4750 
Q 3056 4750 3426 4639 
Q 3797 4528 4122 4306 
z
" transform="scale(0.015625)"/>
       <path id="DejaVuSans-6f" d="M 1959 3097 
Q 1497 3097 1228 2736 
Q 959 2375 959 1747 
Q 959 1119 1226 758 
Q 1494 397 1959 397 
Q 2419 397 2687 759 
Q 2956 1122 2956 1747 
Q 2956 2369 2687 2733 
Q 2419 3097 1959 3097 
z
M 1959 3584 
Q 2709 3584 3137 3096 
Q 3566 2609 3566 1747 
Q 3566 888 3137 398 
Q 2709 -91 1959 -91 
Q 1206 -91 779 398 
Q 353 888 353 1747 
Q 353 2609 779 3096 
Q 1206 3584 1959 3584 
z
" transform="scale(0.015625)"/>
       <path id="DejaVuSans-6e" d="M 3513 2113 
L 3513 0 
L 2938 0 
L 2938 2094 
Q 2938 2591 2744 2837 
Q 2550 3084 2163 3084 
Q 1697 3084 1428 2787 
Q 1159 2491 1159 1978 
L 1159 0 
L 581 0 
L 581 3500 
L 1159 3500 
L 1159 2956 
Q 1366 3272 1645 3428 
Q 1925 3584 2291 3584 
Q 2894 3584 3203 3211 
Q 3513 2838 3513 2113 
z
" transform="scale(0.015625)"/>
       <path id="DejaVuSans-74" d="M 1172 4494 
L 1172 3500 
L 2356 3500 
L 2356 3053 
L 1172 3053 
L 1172 1153 
Q 1172 725 1289 603 
Q 1406 481 1766 481 
L 2356 481 
L 2356 0 
L 1766 0 
Q 1100 0 847 248 
Q 594 497 594 1153 
L 594 3053 
L 172 3053 
L 172 3500 
L 594 3500 
L 594 4494 
L 1172 4494 
z
" transform="scale(0.015625)"/>
      </defs>
      <use xlink:href="#DejaVuSans-43"/>
      <use xlink:href="#DejaVuSans-6f" x="69.824219"/>
      <use xlink:href="#DejaVuSans-75" x="131.005859"/>
      <use xlink:href="#DejaVuSans-6e" x="194.384766"/>
      <use xlink:href="#DejaVuSans-74" x="257.763672"/>
     </g>
    </g>
   </g>
   <g id="line2d_12">
    <path d="M 397.319111 242.728 
L 397.319111 30.624 
" clip-path="url(#p32bcaf16c1)" style="fill: none; stroke-dasharray: 5.55,2.4; stroke-dashoffset: 0; stroke: #ff0000; stroke-width: 1.5"/>
   </g>
   <g id="line2d_13">
    <path d="M 392.280481 242.728 
L 392.280481 30.624 
" clip-path="url(#p32bcaf16c1)" style="fill: none; stroke: #0000ff; stroke-width: 1.5; stroke-linecap: square"/>
   </g>
   <g id="patch_53">
    <path d="M 44.66 242.728 
L 44.66 30.624 
" style="fill: none; stroke: #000000; stroke-width: 0.8; stroke-linejoin: miter; stroke-linecap: square"/>
   </g>
   <g id="patch_54">
    <path d="M 429.795 242.728 
L 429.795 30.624 
" style="fill: none; stroke: #000000; stroke-width: 0.8; stroke-linejoin: miter; stroke-linecap: square"/>
   </g>
   <g id="patch_55">
    <path d="M 44.66 242.728 
L 429.795 242.728 
" style="fill: none; stroke: #000000; stroke-width: 0.8; stroke-linejoin: miter; stroke-linecap: square"/>
   </g>
   <g id="patch_56">
    <path d="M 44.66 30.624 
L 429.795 30.624 
" style="fill: none; stroke: #000000; stroke-width: 0.8; stroke-linejoin: miter; stroke-linecap: square"/>
   </g>
   <g id="text_14">
    <!-- Posterior Distribution for Mean ($\mu$) -->
    <g transform="translate(117.6675 24.624) scale(0.14 -0.14)">
     <defs>
      <path id="DejaVuSans-50" d="M 1259 4147 
L 1259 2394 
L 2053 2394 
Q 2494 2394 2734 2622 
Q 2975 2850 2975 3272 
Q 2975 3691 2734 3919 
Q 2494 4147 2053 4147 
L 1259 4147 
z
M 628 4666 
L 2053 4666 
Q 2838 4666 3239 4311 
Q 3641 3956 3641 3272 
Q 3641 2581 3239 2228 
Q 2838 1875 2053 1875 
L 1259 1875 
L 1259 0 
L 628 0 
L 628 4666 
z
" transform="scale(0.015625)"/>
      <path id="DejaVuSans-73" d="M 2834 3397 
L 2834 2853 
Q 2591 2978 2328 3040 
Q 2066 3103 1784 3103 
Q 1356 3103 1142 2972 
Q 928 2841 928 2578 
Q 928 2378 1081 2264 
Q 1234 2150 1697 2047 
L 1894 2003 
Q 2506 1872 2764 1633 
Q 3022 1394 3022 966 
Q 3022 478 2636 193 
Q 2250 -91 1575 -91 
Q 1294 -91 989 -36 
Q 684 19 347 128 
L 347 722 
Q 666 556 975 473 
Q 1284 391 1588 391 
Q 1994 391 2212 530 
Q 2431 669 2431 922 
Q 2431 1156 2273 1281 
Q 2116 1406 1581 1522 
L 1381 1569 
Q 847 1681 609 1914 
Q 372 2147 372 2553 
Q 372 3047 722 3315 
Q 1072 3584 1716 3584 
Q 2034 3584 2315 3537 
Q 2597 3491 2834 3397 
z
" transform="scale(0.015625)"/>
      <path id="DejaVuSans-72" d="M 2631 2963 
Q 2534 3019 2420 3045 
Q 2306 3072 2169 3072 
Q 1681 3072 1420 2755 
Q 1159 2438 1159 1844 
L 1159 0 
L 581 0 
L 581 3500 
L 1159 3500 
L 1159 2956 
Q 1341 3275 1631 3429 
Q 1922 3584 2338 3584 
Q 2397 3584 2469 3576 
Q 2541 3569 2628 3553 
L 2631 2963 
z
" transform="scale(0.015625)"/>
      <path id="DejaVuSans-69" d="M 603 3500 
L 1178 3500 
L 1178 0 
L 603 0 
L 603 3500 
z
M 603 4863 
L 1178 4863 
L 1178 4134 
L 603 4134 
L 603 4863 
z
" transform="scale(0.015625)"/>
      <path id="DejaVuSans-44" d="M 1259 4147 
L 1259 519 
L 2022 519 
Q 2988 519 3436 956 
Q 3884 1394 3884 2338 
Q 3884 3275 3436 3711 
Q 2988 4147 2022 4147 
L 1259 4147 
z
M 628 4666 
L 1925 4666 
Q 3281 4666 3915 4102 
Q 4550 3538 4550 2338 
Q 4550 1131 3912 565 
Q 3275 0 1925 0 
L 628 0 
L 628 4666 
z
" transform="scale(0.015625)"/>
      <path id="DejaVuSans-62" d="M 3116 1747 
Q 3116 2381 2855 2742 
Q 2594 3103 2138 3103 
Q 1681 3103 1420 2742 
Q 1159 2381 1159 1747 
Q 1159 1113 1420 752 
Q 1681 391 2138 391 
Q 2594 391 2855 752 
Q 3116 1113 3116 1747 
z
M 1159 2969 
Q 1341 3281 1617 3432 
Q 1894 3584 2278 3584 
Q 2916 3584 3314 3078 
Q 3713 2572 3713 1747 
Q 3713 922 3314 415 
Q 2916 -91 2278 -91 
Q 1894 -91 1617 61 
Q 1341 213 1159 525 
L 1159 0 
L 581 0 
L 581 4863 
L 1159 4863 
L 1159 2969 
z
" transform="scale(0.015625)"/>
      <path id="DejaVuSans-66" d="M 2375 4863 
L 2375 4384 
L 1825 4384 
Q 1516 4384 1395 4259 
Q 1275 4134 1275 3809 
L 1275 3500 
L 2222 3500 
L 2222 3053 
L 1275 3053 
L 1275 0 
L 697 0 
L 697 3053 
L 147 3053 
L 147 3500 
L 697 3500 
L 697 3744 
Q 697 4328 969 4595 
Q 1241 4863 1831 4863 
L 2375 4863 
z
" transform="scale(0.015625)"/>
      <path id="DejaVuSans-4d" d="M 628 4666 
L 1569 4666 
L 2759 1491 
L 3956 4666 
L 4897 4666 
L 4897 0 
L 4281 0 
L 4281 4097 
L 3078 897 
L 2444 897 
L 1241 4097 
L 1241 0 
L 628 0 
L 628 4666 
z
" transform="scale(0.015625)"/>
      <path id="DejaVuSans-28" d="M 1984 4856 
Q 1566 4138 1362 3434 
Q 1159 2731 1159 2009 
Q 1159 1288 1364 580 
Q 1569 -128 1984 -844 
L 1484 -844 
Q 1016 -109 783 600 
Q 550 1309 550 2009 
Q 550 2706 781 3412 
Q 1013 4119 1484 4856 
L 1984 4856 
z
" transform="scale(0.015625)"/>
      <path id="DejaVuSans-29" d="M 513 4856 
L 1013 4856 
Q 1481 4119 1714 3412 
Q 1947 2706 1947 2009 
Q 1947 1309 1714 600 
Q 1481 -109 1013 -844 
L 513 -844 
Q 928 -128 1133 580 
Q 1338 1288 1338 2009 
Q 1338 2731 1133 3434 
Q 928 4138 513 4856 
z
" transform="scale(0.015625)"/>
     </defs>
     <use xlink:href="#DejaVuSans-50" transform="translate(0 0.015625)"/>
     <use xlink:href="#DejaVuSans-6f" transform="translate(60.302734 0.015625)"/>
     <use xlink:href="#DejaVuSans-73" transform="translate(121.484375 0.015625)"/>
     <use xlink:href="#DejaVuSans-74" transform="translate(173.583984 0.015625)"/>
     <use xlink:href="#DejaVuSans-65" transform="translate(212.792969 0.015625)"/>
     <use xlink:href="#DejaVuSans-72" transform="translate(274.316406 0.015625)"/>
     <use xlink:href="#DejaVuSans-69" transform="translate(315.429688 0.015625)"/>
     <use xlink:href="#DejaVuSans-6f" transform="translate(343.212891 0.015625)"/>
     <use xlink:href="#DejaVuSans-72" transform="translate(404.394531 0.015625)"/>
     <use xlink:href="#DejaVuSans-20" transform="translate(445.507812 0.015625)"/>
     <use xlink:href="#DejaVuSans-44" transform="translate(477.294922 0.015625)"/>
     <use xlink:href="#DejaVuSans-69" transform="translate(554.296875 0.015625)"/>
     <use xlink:href="#DejaVuSans-73" transform="translate(582.080078 0.015625)"/>
     <use xlink:href="#DejaVuSans-74" transform="translate(634.179688 0.015625)"/>
     <use xlink:href="#DejaVuSans-72" transform="translate(673.388672 0.015625)"/>
     <use xlink:href="#DejaVuSans-69" transform="translate(714.501953 0.015625)"/>
     <use xlink:href="#DejaVuSans-62" transform="translate(742.285156 0.015625)"/>
     <use xlink:href="#DejaVuSans-75" transform="translate(805.761719 0.015625)"/>
     <use xlink:href="#DejaVuSans-74" transform="translate(869.140625 0.015625)"/>
     <use xlink:href="#DejaVuSans-69" transform="translate(908.349609 0.015625)"/>
     <use xlink:href="#DejaVuSans-6f" transform="translate(936.132812 0.015625)"/>
     <use xlink:href="#DejaVuSans-6e" transform="translate(997.314453 0.015625)"/>
     <use xlink:href="#DejaVuSans-20" transform="translate(1060.693359 0.015625)"/>
     <use xlink:href="#DejaVuSans-66" transform="translate(1092.480469 0.015625)"/>
     <use xlink:href="#DejaVuSans-6f" transform="translate(1127.685547 0.015625)"/>
     <use xlink:href="#DejaVuSans-72" transform="translate(1188.867188 0.015625)"/>
     <use xlink:href="#DejaVuSans-20" transform="translate(1229.980469 0.015625)"/>
     <use xlink:href="#DejaVuSans-4d" transform="translate(1261.767578 0.015625)"/>
     <use xlink:href="#DejaVuSans-65" transform="translate(1348.046875 0.015625)"/>
     <use xlink:href="#DejaVuSans-61" transform="translate(1409.570312 0.015625)"/>
     <use xlink:href="#DejaVuSans-6e" transform="translate(1470.849609 0.015625)"/>
     <use xlink:href="#DejaVuSans-20" transform="translate(1534.228516 0.015625)"/>
     <use xlink:href="#DejaVuSans-28" transform="translate(1566.015625 0.015625)"/>
     <use xlink:href="#DejaVuSans-Oblique-3bc" transform="translate(1605.029297 0.015625)"/>
     <use xlink:href="#DejaVuSans-29" transform="translate(1668.652344 0.015625)"/>
    </g>
   </g>
   <g id="legend_1">
    <g id="patch_57">
     <path d="M 51.66 82.678687 
L 201.636562 82.678687 
Q 203.636562 82.678687 203.636562 80.678687 
L 203.636562 37.624 
Q 203.636562 35.624 201.636562 35.624 
L 51.66 35.624 
Q 49.66 35.624 49.66 37.624 
L 49.66 80.678687 
Q 49.66 82.678687 51.66 82.678687 
z
" style="fill: #ffffff; opacity: 0.8; stroke: #cccccc; stroke-linejoin: miter"/>
    </g>
    <g id="patch_58">
     <path d="M 53.66 47.222437 
L 73.66 47.222437 
L 73.66 40.222437 
L 53.66 40.222437 
z
" style="fill: #87ceeb; stroke: #000000; stroke-linejoin: miter"/>
    </g>
    <g id="text_15">
     <!-- Posterior Count -->
     <g transform="translate(81.66 47.222437) scale(0.1 -0.1)">
      <use xlink:href="#DejaVuSans-50"/>
      <use xlink:href="#DejaVuSans-6f" x="56.677734"/>
      <use xlink:href="#DejaVuSans-73" x="117.859375"/>
      <use xlink:href="#DejaVuSans-74" x="169.958984"/>
      <use xlink:href="#DejaVuSans-65" x="209.167969"/>
      <use xlink:href="#DejaVuSans-72" x="270.691406"/>
      <use xlink:href="#DejaVuSans-69" x="311.804688"/>
      <use xlink:href="#DejaVuSans-6f" x="339.587891"/>
      <use xlink:href="#DejaVuSans-72" x="400.769531"/>
      <use xlink:href="#DejaVuSans-20" x="441.882812"/>
      <use xlink:href="#DejaVuSans-43" x="473.669922"/>
      <use xlink:href="#DejaVuSans-6f" x="543.494141"/>
      <use xlink:href="#DejaVuSans-75" x="604.675781"/>
      <use xlink:href="#DejaVuSans-6e" x="668.054688"/>
      <use xlink:href="#DejaVuSans-74" x="731.433594"/>
     </g>
    </g>
    <g id="line2d_14">
     <path d="M 53.66 58.400562 
L 63.66 58.400562 
L 73.66 58.400562 
" style="fill: none; stroke-dasharray: 5.55,2.4; stroke-dashoffset: 0; stroke: #ff0000; stroke-width: 1.5"/>
    </g>
    <g id="text_16">
     <!-- True $\mu$ = 5.00 -->
     <g transform="translate(81.66 61.900562) scale(0.1 -0.1)">
      <defs>
       <path id="DejaVuSans-54" d="M -19 4666 
L 3928 4666 
L 3928 4134 
L 2272 4134 
L 2272 0 
L 1638 0 
L 1638 4134 
L -19 4134 
L -19 4666 
z
" transform="scale(0.015625)"/>
       <path id="DejaVuSans-3d" d="M 678 2906 
L 4684 2906 
L 4684 2381 
L 678 2381 
L 678 2906 
z
M 678 1631 
L 4684 1631 
L 4684 1100 
L 678 1100 
L 678 1631 
z
" transform="scale(0.015625)"/>
       <path id="DejaVuSans-2e" d="M 684 794 
L 1344 794 
L 1344 0 
L 684 0 
L 684 794 
z
" transform="scale(0.015625)"/>
      </defs>
      <use xlink:href="#DejaVuSans-54" transform="translate(0 0.78125)"/>
      <use xlink:href="#DejaVuSans-72" transform="translate(61.083984 0.78125)"/>
      <use xlink:href="#DejaVuSans-75" transform="translate(102.197266 0.78125)"/>
      <use xlink:href="#DejaVuSans-65" transform="translate(165.576172 0.78125)"/>
      <use xlink:href="#DejaVuSans-20" transform="translate(227.099609 0.78125)"/>
      <use xlink:href="#DejaVuSans-Oblique-3bc" transform="translate(258.886719 0.78125)"/>
      <use xlink:href="#DejaVuSans-20" transform="translate(322.509766 0.78125)"/>
      <use xlink:href="#DejaVuSans-3d" transform="translate(354.296875 0.78125)"/>
      <use xlink:href="#DejaVuSans-20" transform="translate(438.085938 0.78125)"/>
      <use xlink:href="#DejaVuSans-35" transform="translate(469.873047 0.78125)"/>
      <use xlink:href="#DejaVuSans-2e" transform="translate(533.496094 0.78125)"/>
      <use xlink:href="#DejaVuSans-30" transform="translate(565.283203 0.78125)"/>
      <use xlink:href="#DejaVuSans-30" transform="translate(628.90625 0.78125)"/>
     </g>
    </g>
    <g id="line2d_15">
     <path d="M 53.66 73.099 
L 63.66 73.099 
L 73.66 73.099 
" style="fill: none; stroke: #0000ff; stroke-width: 1.5; stroke-linecap: square"/>
    </g>
    <g id="text_17">
     <!-- Posterior Mean = 4.940 -->
     <g transform="translate(81.66 76.599) scale(0.1 -0.1)">
      <defs>
       <path id="DejaVuSans-39" d="M 703 97 
L 703 672 
Q 941 559 1184 500 
Q 1428 441 1663 441 
Q 2288 441 2617 861 
Q 2947 1281 2994 2138 
Q 2813 1869 2534 1725 
Q 2256 1581 1919 1581 
Q 1219 1581 811 2004 
Q 403 2428 403 3163 
Q 403 3881 828 4315 
Q 1253 4750 1959 4750 
Q 2769 4750 3195 4129 
Q 3622 3509 3622 2328 
Q 3622 1225 3098 567 
Q 2575 -91 1691 -91 
Q 1453 -91 1209 -44 
Q 966 3 703 97 
z
M 1959 2075 
Q 2384 2075 2632 2365 
Q 2881 2656 2881 3163 
Q 2881 3666 2632 3958 
Q 2384 4250 1959 4250 
Q 1534 4250 1286 3958 
Q 1038 3666 1038 3163 
Q 1038 2656 1286 2365 
Q 1534 2075 1959 2075 
z
" transform="scale(0.015625)"/>
      </defs>
      <use xlink:href="#DejaVuSans-50"/>
      <use xlink:href="#DejaVuSans-6f" x="56.677734"/>
      <use xlink:href="#DejaVuSans-73" x="117.859375"/>
      <use xlink:href="#DejaVuSans-74" x="169.958984"/>
      <use xlink:href="#DejaVuSans-65" x="209.167969"/>
      <use xlink:href="#DejaVuSans-72" x="270.691406"/>
      <use xlink:href="#DejaVuSans-69" x="311.804688"/>
      <use xlink:href="#DejaVuSans-6f" x="339.587891"/>
      <use xlink:href="#DejaVuSans-72" x="400.769531"/>
      <use xlink:href="#DejaVuSans-20" x="441.882812"/>
      <use xlink:href="#DejaVuSans-4d" x="473.669922"/>
      <use xlink:href="#DejaVuSans-65" x="559.949219"/>
      <use xlink:href="#DejaVuSans-61" x="621.472656"/>
      <use xlink:href="#DejaVuSans-6e" x="682.751953"/>
      <use xlink:href="#DejaVuSans-20" x="746.130859"/>
      <use xlink:href="#DejaVuSans-3d" x="777.917969"/>
      <use xlink:href="#DejaVuSans-20" x="861.707031"/>
      <use xlink:href="#DejaVuSans-34" x="893.494141"/>
      <use xlink:href="#DejaVuSans-2e" x="957.117188"/>
      <use xlink:href="#DejaVuSans-39" x="988.904297"/>
      <use xlink:href="#DejaVuSans-34" x="1052.527344"/>
      <use xlink:href="#DejaVuSans-30" x="1116.150391"/>
     </g>
    </g>
   </g>
  </g>
  <g id="axes_2">
   <g id="patch_59">
    <path d="M 468.065 242.728 
L 853.2 242.728 
L 853.2 30.624 
L 468.065 30.624 
z
" style="fill: #ffffff"/>
   </g>
   <g id="patch_60">
    <path d="M 485.571136 242.728 
L 492.573591 242.728 
L 492.573591 209.060698 
L 485.571136 209.060698 
z
" clip-path="url(#pabde2a1bc6)" style="fill: #f08080; stroke: #000000; stroke-linejoin: miter"/>
   </g>
   <g id="patch_61">
    <path d="M 492.573591 242.728 
L 499.576045 242.728 
L 499.576045 242.728 
L 492.573591 242.728 
z
" clip-path="url(#pabde2a1bc6)" style="fill: #f08080; stroke: #000000; stroke-linejoin: miter"/>
   </g>
   <g id="patch_62">
    <path d="M 499.576045 242.728 
L 506.5785 242.728 
L 506.5785 242.728 
L 499.576045 242.728 
z
" clip-path="url(#pabde2a1bc6)" style="fill: #f08080; stroke: #000000; stroke-linejoin: miter"/>
   </g>
   <g id="patch_63">
    <path d="M 506.5785 242.728 
L 513.580955 242.728 
L 513.580955 242.728 
L 506.5785 242.728 
z
" clip-path="url(#pabde2a1bc6)" style="fill: #f08080; stroke: #000000; stroke-linejoin: miter"/>
   </g>
   <g id="patch_64">
    <path d="M 513.580955 242.728 
L 520.583409 242.728 
L 520.583409 242.728 
L 513.580955 242.728 
z
" clip-path="url(#pabde2a1bc6)" style="fill: #f08080; stroke: #000000; stroke-linejoin: miter"/>
   </g>
   <g id="patch_65">
    <path d="M 520.583409 242.728 
L 527.585864 242.728 
L 527.585864 242.728 
L 520.583409 242.728 
z
" clip-path="url(#pabde2a1bc6)" style="fill: #f08080; stroke: #000000; stroke-linejoin: miter"/>
   </g>
   <g id="patch_66">
    <path d="M 527.585864 242.728 
L 534.588318 242.728 
L 534.588318 242.728 
L 527.585864 242.728 
z
" clip-path="url(#pabde2a1bc6)" style="fill: #f08080; stroke: #000000; stroke-linejoin: miter"/>
   </g>
   <g id="patch_67">
    <path d="M 534.588318 242.728 
L 541.590773 242.728 
L 541.590773 242.728 
L 534.588318 242.728 
z
" clip-path="url(#pabde2a1bc6)" style="fill: #f08080; stroke: #000000; stroke-linejoin: miter"/>
   </g>
   <g id="patch_68">
    <path d="M 541.590773 242.728 
L 548.593227 242.728 
L 548.593227 242.728 
L 541.590773 242.728 
z
" clip-path="url(#pabde2a1bc6)" style="fill: #f08080; stroke: #000000; stroke-linejoin: miter"/>
   </g>
   <g id="patch_69">
    <path d="M 548.593227 242.728 
L 555.595682 242.728 
L 555.595682 242.728 
L 548.593227 242.728 
z
" clip-path="url(#pabde2a1bc6)" style="fill: #f08080; stroke: #000000; stroke-linejoin: miter"/>
   </g>
   <g id="patch_70">
    <path d="M 555.595682 242.728 
L 562.598136 242.728 
L 562.598136 242.728 
L 555.595682 242.728 
z
" clip-path="url(#pabde2a1bc6)" style="fill: #f08080; stroke: #000000; stroke-linejoin: miter"/>
   </g>
   <g id="patch_71">
    <path d="M 562.598136 242.728 
L 569.600591 242.728 
L 569.600591 242.728 
L 562.598136 242.728 
z
" clip-path="url(#pabde2a1bc6)" style="fill: #f08080; stroke: #000000; stroke-linejoin: miter"/>
   </g>
   <g id="patch_72">
    <path d="M 569.600591 242.728 
L 576.603045 242.728 
L 576.603045 242.728 
L 569.600591 242.728 
z
" clip-path="url(#pabde2a1bc6)" style="fill: #f08080; stroke: #000000; stroke-linejoin: miter"/>
   </g>
   <g id="patch_73">
    <path d="M 576.603045 242.728 
L 583.6055 242.728 
L 583.6055 242.728 
L 576.603045 242.728 
z
" clip-path="url(#pabde2a1bc6)" style="fill: #f08080; stroke: #000000; stroke-linejoin: miter"/>
   </g>
   <g id="patch_74">
    <path d="M 583.6055 242.728 
L 590.607955 242.728 
L 590.607955 242.728 
L 583.6055 242.728 
z
" clip-path="url(#pabde2a1bc6)" style="fill: #f08080; stroke: #000000; stroke-linejoin: miter"/>
   </g>
   <g id="patch_75">
    <path d="M 590.607955 242.728 
L 597.610409 242.728 
L 597.610409 242.728 
L 590.607955 242.728 
z
" clip-path="url(#pabde2a1bc6)" style="fill: #f08080; stroke: #000000; stroke-linejoin: miter"/>
   </g>
   <g id="patch_76">
    <path d="M 597.610409 242.728 
L 604.612864 242.728 
L 604.612864 242.728 
L 597.610409 242.728 
z
" clip-path="url(#pabde2a1bc6)" style="fill: #f08080; stroke: #000000; stroke-linejoin: miter"/>
   </g>
   <g id="patch_77">
    <path d="M 604.612864 242.728 
L 611.615318 242.728 
L 611.615318 242.728 
L 604.612864 242.728 
z
" clip-path="url(#pabde2a1bc6)" style="fill: #f08080; stroke: #000000; stroke-linejoin: miter"/>
   </g>
   <g id="patch_78">
    <path d="M 611.615318 242.728 
L 618.617773 242.728 
L 618.617773 175.393397 
L 611.615318 175.393397 
z
" clip-path="url(#pabde2a1bc6)" style="fill: #f08080; stroke: #000000; stroke-linejoin: miter"/>
   </g>
   <g id="patch_79">
    <path d="M 618.617773 242.728 
L 625.620227 242.728 
L 625.620227 209.060698 
L 618.617773 209.060698 
z
" clip-path="url(#pabde2a1bc6)" style="fill: #f08080; stroke: #000000; stroke-linejoin: miter"/>
   </g>
   <g id="patch_80">
    <path d="M 625.620227 242.728 
L 632.622682 242.728 
L 632.622682 242.728 
L 625.620227 242.728 
z
" clip-path="url(#pabde2a1bc6)" style="fill: #f08080; stroke: #000000; stroke-linejoin: miter"/>
   </g>
   <g id="patch_81">
    <path d="M 632.622682 242.728 
L 639.625136 242.728 
L 639.625136 242.728 
L 632.622682 242.728 
z
" clip-path="url(#pabde2a1bc6)" style="fill: #f08080; stroke: #000000; stroke-linejoin: miter"/>
   </g>
   <g id="patch_82">
    <path d="M 639.625136 242.728 
L 646.627591 242.728 
L 646.627591 209.060698 
L 639.625136 209.060698 
z
" clip-path="url(#pabde2a1bc6)" style="fill: #f08080; stroke: #000000; stroke-linejoin: miter"/>
   </g>
   <g id="patch_83">
    <path d="M 646.627591 242.728 
L 653.630045 242.728 
L 653.630045 209.060698 
L 646.627591 209.060698 
z
" clip-path="url(#pabde2a1bc6)" style="fill: #f08080; stroke: #000000; stroke-linejoin: miter"/>
   </g>
   <g id="patch_84">
    <path d="M 653.630045 242.728 
L 660.6325 242.728 
L 660.6325 141.726095 
L 653.630045 141.726095 
z
" clip-path="url(#pabde2a1bc6)" style="fill: #f08080; stroke: #000000; stroke-linejoin: miter"/>
   </g>
   <g id="patch_85">
    <path d="M 660.6325 242.728 
L 667.634955 242.728 
L 667.634955 141.726095 
L 660.6325 141.726095 
z
" clip-path="url(#pabde2a1bc6)" style="fill: #f08080; stroke: #000000; stroke-linejoin: miter"/>
   </g>
   <g id="patch_86">
    <path d="M 667.634955 242.728 
L 674.637409 242.728 
L 674.637409 141.726095 
L 667.634955 141.726095 
z
" clip-path="url(#pabde2a1bc6)" style="fill: #f08080; stroke: #000000; stroke-linejoin: miter"/>
   </g>
   <g id="patch_87">
    <path d="M 674.637409 242.728 
L 681.639864 242.728 
L 681.639864 209.060698 
L 674.637409 209.060698 
z
" clip-path="url(#pabde2a1bc6)" style="fill: #f08080; stroke: #000000; stroke-linejoin: miter"/>
   </g>
   <g id="patch_88">
    <path d="M 681.639864 242.728 
L 688.642318 242.728 
L 688.642318 209.060698 
L 681.639864 209.060698 
z
" clip-path="url(#pabde2a1bc6)" style="fill: #f08080; stroke: #000000; stroke-linejoin: miter"/>
   </g>
   <g id="patch_89">
    <path d="M 688.642318 242.728 
L 695.644773 242.728 
L 695.644773 175.393397 
L 688.642318 175.393397 
z
" clip-path="url(#pabde2a1bc6)" style="fill: #f08080; stroke: #000000; stroke-linejoin: miter"/>
   </g>
   <g id="patch_90">
    <path d="M 695.644773 242.728 
L 702.647227 242.728 
L 702.647227 175.393397 
L 695.644773 175.393397 
z
" clip-path="url(#pabde2a1bc6)" style="fill: #f08080; stroke: #000000; stroke-linejoin: miter"/>
   </g>
   <g id="patch_91">
    <path d="M 702.647227 242.728 
L 709.649682 242.728 
L 709.649682 175.393397 
L 702.647227 175.393397 
z
" clip-path="url(#pabde2a1bc6)" style="fill: #f08080; stroke: #000000; stroke-linejoin: miter"/>
   </g>
   <g id="patch_92">
    <path d="M 709.649682 242.728 
L 716.652136 242.728 
L 716.652136 209.060698 
L 709.649682 209.060698 
z
" clip-path="url(#pabde2a1bc6)" style="fill: #f08080; stroke: #000000; stroke-linejoin: miter"/>
   </g>
   <g id="patch_93">
    <path d="M 716.652136 242.728 
L 723.654591 242.728 
L 723.654591 74.391492 
L 716.652136 74.391492 
z
" clip-path="url(#pabde2a1bc6)" style="fill: #f08080; stroke: #000000; stroke-linejoin: miter"/>
   </g>
   <g id="patch_94">
    <path d="M 723.654591 242.728 
L 730.657045 242.728 
L 730.657045 141.726095 
L 723.654591 141.726095 
z
" clip-path="url(#pabde2a1bc6)" style="fill: #f08080; stroke: #000000; stroke-linejoin: miter"/>
   </g>
   <g id="patch_95">
    <path d="M 730.657045 242.728 
L 737.6595 242.728 
L 737.6595 40.72419 
L 730.657045 40.72419 
z
" clip-path="url(#pabde2a1bc6)" style="fill: #f08080; stroke: #000000; stroke-linejoin: miter"/>
   </g>
   <g id="patch_96">
    <path d="M 737.6595 242.728 
L 744.661955 242.728 
L 744.661955 242.728 
L 737.6595 242.728 
z
" clip-path="url(#pabde2a1bc6)" style="fill: #f08080; stroke: #000000; stroke-linejoin: miter"/>
   </g>
   <g id="patch_97">
    <path d="M 744.661955 242.728 
L 751.664409 242.728 
L 751.664409 175.393397 
L 744.661955 175.393397 
z
" clip-path="url(#pabde2a1bc6)" style="fill: #f08080; stroke: #000000; stroke-linejoin: miter"/>
   </g>
   <g id="patch_98">
    <path d="M 751.664409 242.728 
L 758.666864 242.728 
L 758.666864 209.060698 
L 751.664409 209.060698 
z
" clip-path="url(#pabde2a1bc6)" style="fill: #f08080; stroke: #000000; stroke-linejoin: miter"/>
   </g>
   <g id="patch_99">
    <path d="M 758.666864 242.728 
L 765.669318 242.728 
L 765.669318 209.060698 
L 758.666864 209.060698 
z
" clip-path="url(#pabde2a1bc6)" style="fill: #f08080; stroke: #000000; stroke-linejoin: miter"/>
   </g>
   <g id="patch_100">
    <path d="M 765.669318 242.728 
L 772.671773 242.728 
L 772.671773 209.060698 
L 765.669318 209.060698 
z
" clip-path="url(#pabde2a1bc6)" style="fill: #f08080; stroke: #000000; stroke-linejoin: miter"/>
   </g>
   <g id="patch_101">
    <path d="M 772.671773 242.728 
L 779.674227 242.728 
L 779.674227 141.726095 
L 772.671773 141.726095 
z
" clip-path="url(#pabde2a1bc6)" style="fill: #f08080; stroke: #000000; stroke-linejoin: miter"/>
   </g>
   <g id="patch_102">
    <path d="M 779.674227 242.728 
L 786.676682 242.728 
L 786.676682 175.393397 
L 779.674227 175.393397 
z
" clip-path="url(#pabde2a1bc6)" style="fill: #f08080; stroke: #000000; stroke-linejoin: miter"/>
   </g>
   <g id="patch_103">
    <path d="M 786.676682 242.728 
L 793.679136 242.728 
L 793.679136 209.060698 
L 786.676682 209.060698 
z
" clip-path="url(#pabde2a1bc6)" style="fill: #f08080; stroke: #000000; stroke-linejoin: miter"/>
   </g>
   <g id="patch_104">
    <path d="M 793.679136 242.728 
L 800.681591 242.728 
L 800.681591 242.728 
L 793.679136 242.728 
z
" clip-path="url(#pabde2a1bc6)" style="fill: #f08080; stroke: #000000; stroke-linejoin: miter"/>
   </g>
   <g id="patch_105">
    <path d="M 800.681591 242.728 
L 807.684045 242.728 
L 807.684045 242.728 
L 800.681591 242.728 
z
" clip-path="url(#pabde2a1bc6)" style="fill: #f08080; stroke: #000000; stroke-linejoin: miter"/>
   </g>
   <g id="patch_106">
    <path d="M 807.684045 242.728 
L 814.6865 242.728 
L 814.6865 242.728 
L 807.684045 242.728 
z
" clip-path="url(#pabde2a1bc6)" style="fill: #f08080; stroke: #000000; stroke-linejoin: miter"/>
   </g>
   <g id="patch_107">
    <path d="M 814.6865 242.728 
L 821.688955 242.728 
L 821.688955 242.728 
L 814.6865 242.728 
z
" clip-path="url(#pabde2a1bc6)" style="fill: #f08080; stroke: #000000; stroke-linejoin: miter"/>
   </g>
   <g id="patch_108">
    <path d="M 821.688955 242.728 
L 828.691409 242.728 
L 828.691409 242.728 
L 821.688955 242.728 
z
" clip-path="url(#pabde2a1bc6)" style="fill: #f08080; stroke: #000000; stroke-linejoin: miter"/>
   </g>
   <g id="patch_109">
    <path d="M 828.691409 242.728 
L 835.693864 242.728 
L 835.693864 209.060698 
L 828.691409 209.060698 
z
" clip-path="url(#pabde2a1bc6)" style="fill: #f08080; stroke: #000000; stroke-linejoin: miter"/>
   </g>
   <g id="matplotlib.axis_3">
    <g id="xtick_6">
     <g id="line2d_16">
      <g>
       <use xlink:href="#mea2ac4070a" x="485.571136" y="242.728" style="stroke: #000000; stroke-width: 0.8"/>
      </g>
     </g>
     <g id="text_18">
      <!-- 0.2 -->
      <g transform="translate(477.619574 257.326437) scale(0.1 -0.1)">
       <use xlink:href="#DejaVuSans-30"/>
       <use xlink:href="#DejaVuSans-2e" x="63.623047"/>
       <use xlink:href="#DejaVuSans-32" x="95.410156"/>
      </g>
     </g>
    </g>
    <g id="xtick_7">
     <g id="line2d_17">
      <g>
       <use xlink:href="#mea2ac4070a" x="561.024764" y="242.728" style="stroke: #000000; stroke-width: 0.8"/>
      </g>
     </g>
     <g id="text_19">
      <!-- 0.3 -->
      <g transform="translate(553.073201 257.326437) scale(0.1 -0.1)">
       <use xlink:href="#DejaVuSans-30"/>
       <use xlink:href="#DejaVuSans-2e" x="63.623047"/>
       <use xlink:href="#DejaVuSans-33" x="95.410156"/>
      </g>
     </g>
    </g>
    <g id="xtick_8">
     <g id="line2d_18">
      <g>
       <use xlink:href="#mea2ac4070a" x="636.478391" y="242.728" style="stroke: #000000; stroke-width: 0.8"/>
      </g>
     </g>
     <g id="text_20">
      <!-- 0.4 -->
      <g transform="translate(628.526828 257.326437) scale(0.1 -0.1)">
       <use xlink:href="#DejaVuSans-30"/>
       <use xlink:href="#DejaVuSans-2e" x="63.623047"/>
       <use xlink:href="#DejaVuSans-34" x="95.410156"/>
      </g>
     </g>
    </g>
    <g id="xtick_9">
     <g id="line2d_19">
      <g>
       <use xlink:href="#mea2ac4070a" x="711.932018" y="242.728" style="stroke: #000000; stroke-width: 0.8"/>
      </g>
     </g>
     <g id="text_21">
      <!-- 0.5 -->
      <g transform="translate(703.980455 257.326437) scale(0.1 -0.1)">
       <use xlink:href="#DejaVuSans-30"/>
       <use xlink:href="#DejaVuSans-2e" x="63.623047"/>
       <use xlink:href="#DejaVuSans-35" x="95.410156"/>
      </g>
     </g>
    </g>
    <g id="xtick_10">
     <g id="line2d_20">
      <g>
       <use xlink:href="#mea2ac4070a" x="787.385645" y="242.728" style="stroke: #000000; stroke-width: 0.8"/>
      </g>
     </g>
     <g id="text_22">
      <!-- 0.6 -->
      <g transform="translate(779.434082 257.326437) scale(0.1 -0.1)">
       <defs>
        <path id="DejaVuSans-36" d="M 2113 2584 
Q 1688 2584 1439 2293 
Q 1191 2003 1191 1497 
Q 1191 994 1439 701 
Q 1688 409 2113 409 
Q 2538 409 2786 701 
Q 3034 994 3034 1497 
Q 3034 2003 2786 2293 
Q 2538 2584 2113 2584 
z
M 3366 4563 
L 3366 3988 
Q 3128 4100 2886 4159 
Q 2644 4219 2406 4219 
Q 1781 4219 1451 3797 
Q 1122 3375 1075 2522 
Q 1259 2794 1537 2939 
Q 1816 3084 2150 3084 
Q 2853 3084 3261 2657 
Q 3669 2231 3669 1497 
Q 3669 778 3244 343 
Q 2819 -91 2113 -91 
Q 1303 -91 875 529 
Q 447 1150 447 2328 
Q 447 3434 972 4092 
Q 1497 4750 2381 4750 
Q 2619 4750 2861 4703 
Q 3103 4656 3366 4563 
z
" transform="scale(0.015625)"/>
       </defs>
       <use xlink:href="#DejaVuSans-30"/>
       <use xlink:href="#DejaVuSans-2e" x="63.623047"/>
       <use xlink:href="#DejaVuSans-36" x="95.410156"/>
      </g>
     </g>
    </g>
    <g id="text_23">
     <!-- $\tau^{-1}$ value -->
     <g transform="translate(636.8325 271.004562) scale(0.1 -0.1)">
      <defs>
       <path id="DejaVuSans-Oblique-3c4" d="M 2103 638 
Q 2188 488 2525 488 
L 2800 488 
L 2706 0 
L 2363 0 
Q 1800 0 1600 300 
Q 1403 606 1534 1269 
L 1856 2925 
L 541 2925 
L 653 3500 
L 3881 3500 
L 3769 2925 
L 2444 2925 
L 2113 1234 
Q 2025 781 2103 638 
z
" transform="scale(0.015625)"/>
       <path id="DejaVuSans-2212" d="M 678 2272 
L 4684 2272 
L 4684 1741 
L 678 1741 
L 678 2272 
z
" transform="scale(0.015625)"/>
      </defs>
      <use xlink:href="#DejaVuSans-Oblique-3c4" transform="translate(0 0.684375)"/>
      <use xlink:href="#DejaVuSans-2212" transform="translate(64.671224 38.965625) scale(0.7)"/>
      <use xlink:href="#DejaVuSans-31" transform="translate(123.323568 38.965625) scale(0.7)"/>
      <use xlink:href="#DejaVuSans-20" transform="translate(170.594076 0.684375)"/>
      <use xlink:href="#DejaVuSans-76" transform="translate(202.381185 0.684375)"/>
      <use xlink:href="#DejaVuSans-61" transform="translate(261.560872 0.684375)"/>
      <use xlink:href="#DejaVuSans-6c" transform="translate(322.840169 0.684375)"/>
      <use xlink:href="#DejaVuSans-75" transform="translate(350.623372 0.684375)"/>
      <use xlink:href="#DejaVuSans-65" transform="translate(414.002279 0.684375)"/>
     </g>
    </g>
   </g>
   <g id="matplotlib.axis_4">
    <g id="ytick_7">
     <g id="line2d_21">
      <g>
       <use xlink:href="#m4ae1ef5718" x="468.065" y="242.728" style="stroke: #000000; stroke-width: 0.8"/>
      </g>
     </g>
     <g id="text_24">
      <!-- 0 -->
      <g transform="translate(454.7025 246.527219) scale(0.1 -0.1)">
       <use xlink:href="#DejaVuSans-30"/>
      </g>
     </g>
    </g>
    <g id="ytick_8">
     <g id="line2d_22">
      <g>
       <use xlink:href="#m4ae1ef5718" x="468.065" y="209.060698" style="stroke: #000000; stroke-width: 0.8"/>
      </g>
     </g>
     <g id="text_25">
      <!-- 1 -->
      <g transform="translate(454.7025 212.859917) scale(0.1 -0.1)">
       <use xlink:href="#DejaVuSans-31"/>
      </g>
     </g>
    </g>
    <g id="ytick_9">
     <g id="line2d_23">
      <g>
       <use xlink:href="#m4ae1ef5718" x="468.065" y="175.393397" style="stroke: #000000; stroke-width: 0.8"/>
      </g>
     </g>
     <g id="text_26">
      <!-- 2 -->
      <g transform="translate(454.7025 179.192616) scale(0.1 -0.1)">
       <use xlink:href="#DejaVuSans-32"/>
      </g>
     </g>
    </g>
    <g id="ytick_10">
     <g id="line2d_24">
      <g>
       <use xlink:href="#m4ae1ef5718" x="468.065" y="141.726095" style="stroke: #000000; stroke-width: 0.8"/>
      </g>
     </g>
     <g id="text_27">
      <!-- 3 -->
      <g transform="translate(454.7025 145.525314) scale(0.1 -0.1)">
       <use xlink:href="#DejaVuSans-33"/>
      </g>
     </g>
    </g>
    <g id="ytick_11">
     <g id="line2d_25">
      <g>
       <use xlink:href="#m4ae1ef5718" x="468.065" y="108.058794" style="stroke: #000000; stroke-width: 0.8"/>
      </g>
     </g>
     <g id="text_28">
      <!-- 4 -->
      <g transform="translate(454.7025 111.858012) scale(0.1 -0.1)">
       <use xlink:href="#DejaVuSans-34"/>
      </g>
     </g>
    </g>
    <g id="ytick_12">
     <g id="line2d_26">
      <g>
       <use xlink:href="#m4ae1ef5718" x="468.065" y="74.391492" style="stroke: #000000; stroke-width: 0.8"/>
      </g>
     </g>
     <g id="text_29">
      <!-- 5 -->
      <g transform="translate(454.7025 78.190711) scale(0.1 -0.1)">
       <use xlink:href="#DejaVuSans-35"/>
      </g>
     </g>
    </g>
    <g id="ytick_13">
     <g id="line2d_27">
      <g>
       <use xlink:href="#m4ae1ef5718" x="468.065" y="40.72419" style="stroke: #000000; stroke-width: 0.8"/>
      </g>
     </g>
     <g id="text_30">
      <!-- 6 -->
      <g transform="translate(454.7025 44.523409) scale(0.1 -0.1)">
       <use xlink:href="#DejaVuSans-36"/>
      </g>
     </g>
    </g>
    <g id="text_31">
     <!-- Count -->
     <g transform="translate(448.622812 151.524437) rotate(-90) scale(0.1 -0.1)">
      <use xlink:href="#DejaVuSans-43"/>
      <use xlink:href="#DejaVuSans-6f" x="69.824219"/>
      <use xlink:href="#DejaVuSans-75" x="131.005859"/>
      <use xlink:href="#DejaVuSans-6e" x="194.384766"/>
      <use xlink:href="#DejaVuSans-74" x="257.763672"/>
     </g>
    </g>
   </g>
   <g id="line2d_28">
    <path d="M 711.932018 242.728 
L 711.932018 30.624 
" clip-path="url(#pabde2a1bc6)" style="fill: none; stroke-dasharray: 5.55,2.4; stroke-dashoffset: 0; stroke: #ff0000; stroke-width: 1.5"/>
   </g>
   <g id="line2d_29">
    <path d="M 707.709322 242.728 
L 707.709322 30.624 
" clip-path="url(#pabde2a1bc6)" style="fill: none; stroke: #0000ff; stroke-width: 1.5; stroke-linecap: square"/>
   </g>
   <g id="patch_110">
    <path d="M 468.065 242.728 
L 468.065 30.624 
" style="fill: none; stroke: #000000; stroke-width: 0.8; stroke-linejoin: miter; stroke-linecap: square"/>
   </g>
   <g id="patch_111">
    <path d="M 853.2 242.728 
L 853.2 30.624 
" style="fill: none; stroke: #000000; stroke-width: 0.8; stroke-linejoin: miter; stroke-linecap: square"/>
   </g>
   <g id="patch_112">
    <path d="M 468.065 242.728 
L 853.2 242.728 
" style="fill: none; stroke: #000000; stroke-width: 0.8; stroke-linejoin: miter; stroke-linecap: square"/>
   </g>
   <g id="patch_113">
    <path d="M 468.065 30.624 
L 853.2 30.624 
" style="fill: none; stroke: #000000; stroke-width: 0.8; stroke-linejoin: miter; stroke-linecap: square"/>
   </g>
   <g id="text_32">
    <!-- Posterior Distribution for Variance ($	au^{-1}$) -->
    <g transform="translate(517.3425 24.624) scale(0.14 -0.14)">
     <defs>
      <path id="DejaVuSans-56" d="M 1831 0 
L 50 4666 
L 709 4666 
L 2188 738 
L 3669 4666 
L 4325 4666 
L 2547 0 
L 1831 0 
z
" transform="scale(0.015625)"/>
      <path id="DejaVuSans-63" d="M 3122 3366 
L 3122 2828 
Q 2878 2963 2633 3030 
Q 2388 3097 2138 3097 
Q 1578 3097 1268 2742 
Q 959 2388 959 1747 
Q 959 1106 1268 751 
Q 1578 397 2138 397 
Q 2388 397 2633 464 
Q 2878 531 3122 666 
L 3122 134 
Q 2881 22 2623 -34 
Q 2366 -91 2075 -91 
Q 1284 -91 818 406 
Q 353 903 353 1747 
Q 353 2603 823 3093 
Q 1294 3584 2113 3584 
Q 2378 3584 2631 3529 
Q 2884 3475 3122 3366 
z
" transform="scale(0.015625)"/>
      <path id="DejaVuSans-Oblique-61" d="M 3438 1997 
L 3047 0 
L 2472 0 
L 2578 531 
Q 2325 219 2001 64 
Q 1678 -91 1281 -91 
Q 834 -91 548 182 
Q 263 456 263 884 
Q 263 1497 752 1853 
Q 1241 2209 2100 2209 
L 2900 2209 
L 2931 2363 
Q 2938 2388 2941 2417 
Q 2944 2447 2944 2509 
Q 2944 2788 2717 2942 
Q 2491 3097 2081 3097 
Q 1800 3097 1504 3025 
Q 1209 2953 897 2809 
L 997 3341 
Q 1322 3463 1633 3523 
Q 1944 3584 2234 3584 
Q 2853 3584 3176 3315 
Q 3500 3047 3500 2534 
Q 3500 2431 3484 2292 
Q 3469 2153 3438 1997 
z
M 2816 1759 
L 2241 1759 
Q 1534 1759 1195 1570 
Q 856 1381 856 984 
Q 856 709 1029 553 
Q 1203 397 1509 397 
Q 1978 397 2328 733 
Q 2678 1069 2791 1631 
L 2816 1759 
z
" transform="scale(0.015625)"/>
      <path id="DejaVuSans-Oblique-75" d="M 428 1388 
L 838 3500 
L 1416 3500 
L 1006 1409 
Q 975 1256 961 1147 
Q 947 1038 947 966 
Q 947 700 1109 554 
Q 1272 409 1569 409 
Q 2031 409 2368 721 
Q 2706 1034 2809 1563 
L 3194 3500 
L 3769 3500 
L 3091 0 
L 2516 0 
L 2631 550 
Q 2388 244 2052 76 
Q 1716 -91 1338 -91 
Q 878 -91 622 161 
Q 366 413 366 863 
Q 366 956 381 1097 
Q 397 1238 428 1388 
z
" transform="scale(0.015625)"/>
     </defs>
     <use xlink:href="#DejaVuSans-50" transform="translate(0 0.684375)"/>
     <use xlink:href="#DejaVuSans-6f" transform="translate(60.302734 0.684375)"/>
     <use xlink:href="#DejaVuSans-73" transform="translate(121.484375 0.684375)"/>
     <use xlink:href="#DejaVuSans-74" transform="translate(173.583984 0.684375)"/>
     <use xlink:href="#DejaVuSans-65" transform="translate(212.792969 0.684375)"/>
     <use xlink:href="#DejaVuSans-72" transform="translate(274.316406 0.684375)"/>
     <use xlink:href="#DejaVuSans-69" transform="translate(315.429688 0.684375)"/>
     <use xlink:href="#DejaVuSans-6f" transform="translate(343.212891 0.684375)"/>
     <use xlink:href="#DejaVuSans-72" transform="translate(404.394531 0.684375)"/>
     <use xlink:href="#DejaVuSans-20" transform="translate(445.507812 0.684375)"/>
     <use xlink:href="#DejaVuSans-44" transform="translate(477.294922 0.684375)"/>
     <use xlink:href="#DejaVuSans-69" transform="translate(554.296875 0.684375)"/>
     <use xlink:href="#DejaVuSans-73" transform="translate(582.080078 0.684375)"/>
     <use xlink:href="#DejaVuSans-74" transform="translate(634.179688 0.684375)"/>
     <use xlink:href="#DejaVuSans-72" transform="translate(673.388672 0.684375)"/>
     <use xlink:href="#DejaVuSans-69" transform="translate(714.501953 0.684375)"/>
     <use xlink:href="#DejaVuSans-62" transform="translate(742.285156 0.684375)"/>
     <use xlink:href="#DejaVuSans-75" transform="translate(805.761719 0.684375)"/>
     <use xlink:href="#DejaVuSans-74" transform="translate(869.140625 0.684375)"/>
     <use xlink:href="#DejaVuSans-69" transform="translate(908.349609 0.684375)"/>
     <use xlink:href="#DejaVuSans-6f" transform="translate(936.132812 0.684375)"/>
     <use xlink:href="#DejaVuSans-6e" transform="translate(997.314453 0.684375)"/>
     <use xlink:href="#DejaVuSans-20" transform="translate(1060.693359 0.684375)"/>
     <use xlink:href="#DejaVuSans-66" transform="translate(1092.480469 0.684375)"/>
     <use xlink:href="#DejaVuSans-6f" transform="translate(1127.685547 0.684375)"/>
     <use xlink:href="#DejaVuSans-72" transform="translate(1188.867188 0.684375)"/>
     <use xlink:href="#DejaVuSans-20" transform="translate(1229.980469 0.684375)"/>
     <use xlink:href="#DejaVuSans-56" transform="translate(1261.767578 0.684375)"/>
     <use xlink:href="#DejaVuSans-61" transform="translate(1330.175781 0.684375)"/>
     <use xlink:href="#DejaVuSans-72" transform="translate(1391.455078 0.684375)"/>
     <use xlink:href="#DejaVuSans-69" transform="translate(1432.568359 0.684375)"/>
     <use xlink:href="#DejaVuSans-61" transform="translate(1460.351562 0.684375)"/>
     <use xlink:href="#DejaVuSans-6e" transform="translate(1521.630859 0.684375)"/>
     <use xlink:href="#DejaVuSans-63" transform="translate(1585.009766 0.684375)"/>
     <use xlink:href="#DejaVuSans-65" transform="translate(1639.990234 0.684375)"/>
     <use xlink:href="#DejaVuSans-20" transform="translate(1701.513672 0.684375)"/>
     <use xlink:href="#DejaVuSans-28" transform="translate(1733.300781 0.684375)"/>
     <use xlink:href="#DejaVuSans-Oblique-61" transform="translate(1772.314453 0.684375)"/>
     <use xlink:href="#DejaVuSans-Oblique-75" transform="translate(1833.59375 0.684375)"/>
     <use xlink:href="#DejaVuSans-2212" transform="translate(1901.438802 38.965625) scale(0.7)"/>
     <use xlink:href="#DejaVuSans-31" transform="translate(1960.091146 38.965625) scale(0.7)"/>
     <use xlink:href="#DejaVuSans-29" transform="translate(2007.361654 0.684375)"/>
    </g>
   </g>
   <g id="legend_2">
    <g id="patch_114">
     <path d="M 475.065 82.658375 
L 625.041562 82.658375 
Q 627.041562 82.658375 627.041562 80.658375 
L 627.041562 37.624 
Q 627.041562 35.624 625.041562 35.624 
L 475.065 35.624 
Q 473.065 35.624 473.065 37.624 
L 473.065 80.658375 
Q 473.065 82.658375 475.065 82.658375 
z
" style="fill: #ffffff; opacity: 0.8; stroke: #cccccc; stroke-linejoin: miter"/>
    </g>
    <g id="patch_115">
     <path d="M 477.065 47.222437 
L 497.065 47.222437 
L 497.065 40.222437 
L 477.065 40.222437 
z
" style="fill: #f08080; stroke: #000000; stroke-linejoin: miter"/>
    </g>
    <g id="text_33">
     <!-- Posterior Count -->
     <g transform="translate(505.065 47.222437) scale(0.1 -0.1)">
      <use xlink:href="#DejaVuSans-50"/>
      <use xlink:href="#DejaVuSans-6f" x="56.677734"/>
      <use xlink:href="#DejaVuSans-73" x="117.859375"/>
      <use xlink:href="#DejaVuSans-74" x="169.958984"/>
      <use xlink:href="#DejaVuSans-65" x="209.167969"/>
      <use xlink:href="#DejaVuSans-72" x="270.691406"/>
      <use xlink:href="#DejaVuSans-69" x="311.804688"/>
      <use xlink:href="#DejaVuSans-6f" x="339.587891"/>
      <use xlink:href="#DejaVuSans-72" x="400.769531"/>
      <use xlink:href="#DejaVuSans-20" x="441.882812"/>
      <use xlink:href="#DejaVuSans-43" x="473.669922"/>
      <use xlink:href="#DejaVuSans-6f" x="543.494141"/>
      <use xlink:href="#DejaVuSans-75" x="604.675781"/>
      <use xlink:href="#DejaVuSans-6e" x="668.054688"/>
      <use xlink:href="#DejaVuSans-74" x="731.433594"/>
     </g>
    </g>
    <g id="line2d_30">
     <path d="M 477.065 58.400562 
L 487.065 58.400562 
L 497.065 58.400562 
" style="fill: none; stroke-dasharray: 5.55,2.4; stroke-dashoffset: 0; stroke: #ff0000; stroke-width: 1.5"/>
    </g>
    <g id="text_34">
     <!-- True $\tau^{-1}$ = 0.500 -->
     <g transform="translate(505.065 61.900562) scale(0.1 -0.1)">
      <use xlink:href="#DejaVuSans-54" transform="translate(0 0.684375)"/>
      <use xlink:href="#DejaVuSans-72" transform="translate(61.083984 0.684375)"/>
      <use xlink:href="#DejaVuSans-75" transform="translate(102.197266 0.684375)"/>
      <use xlink:href="#DejaVuSans-65" transform="translate(165.576172 0.684375)"/>
      <use xlink:href="#DejaVuSans-20" transform="translate(227.099609 0.684375)"/>
      <use xlink:href="#DejaVuSans-Oblique-3c4" transform="translate(258.886719 0.684375)"/>
      <use xlink:href="#DejaVuSans-2212" transform="translate(323.557943 38.965625) scale(0.7)"/>
      <use xlink:href="#DejaVuSans-31" transform="translate(382.210286 38.965625) scale(0.7)"/>
      <use xlink:href="#DejaVuSans-20" transform="translate(429.480794 0.684375)"/>
      <use xlink:href="#DejaVuSans-3d" transform="translate(461.267904 0.684375)"/>
      <use xlink:href="#DejaVuSans-20" transform="translate(545.056966 0.684375)"/>
      <use xlink:href="#DejaVuSans-30" transform="translate(576.844076 0.684375)"/>
      <use xlink:href="#DejaVuSans-2e" transform="translate(640.467122 0.684375)"/>
      <use xlink:href="#DejaVuSans-35" transform="translate(672.254232 0.684375)"/>
      <use xlink:href="#DejaVuSans-30" transform="translate(735.877279 0.684375)"/>
      <use xlink:href="#DejaVuSans-30" transform="translate(799.500326 0.684375)"/>
     </g>
    </g>
    <g id="line2d_31">
     <path d="M 477.065 73.078688 
L 487.065 73.078688 
L 497.065 73.078688 
" style="fill: none; stroke: #0000ff; stroke-width: 1.5; stroke-linecap: square"/>
    </g>
    <g id="text_35">
     <!-- Posterior Mean = 0.494 -->
     <g transform="translate(505.065 76.578688) scale(0.1 -0.1)">
      <use xlink:href="#DejaVuSans-50"/>
      <use xlink:href="#DejaVuSans-6f" x="56.677734"/>
      <use xlink:href="#DejaVuSans-73" x="117.859375"/>
      <use xlink:href="#DejaVuSans-74" x="169.958984"/>
      <use xlink:href="#DejaVuSans-65" x="209.167969"/>
      <use xlink:href="#DejaVuSans-72" x="270.691406"/>
      <use xlink:href="#DejaVuSans-69" x="311.804688"/>
      <use xlink:href="#DejaVuSans-6f" x="339.587891"/>
      <use xlink:href="#DejaVuSans-72" x="400.769531"/>
      <use xlink:href="#DejaVuSans-20" x="441.882812"/>
      <use xlink:href="#DejaVuSans-4d" x="473.669922"/>
      <use xlink:href="#DejaVuSans-65" x="559.949219"/>
      <use xlink:href="#DejaVuSans-61" x="621.472656"/>
      <use xlink:href="#DejaVuSans-6e" x="682.751953"/>
      <use xlink:href="#DejaVuSans-20" x="746.130859"/>
      <use xlink:href="#DejaVuSans-3d" x="777.917969"/>
      <use xlink:href="#DejaVuSans-20" x="861.707031"/>
      <use xlink:href="#DejaVuSans-30" x="893.494141"/>
      <use xlink:href="#DejaVuSans-2e" x="957.117188"/>
      <use xlink:href="#DejaVuSans-34" x="988.904297"/>
      <use xlink:href="#DejaVuSans-39" x="1052.527344"/>
      <use xlink:href="#DejaVuSans-34" x="1116.150391"/>
     </g>
    </g>
   </g>
  </g>
 </g>
 <defs>
  <clipPath id="p32bcaf16c1">
   <rect x="44.66" y="30.624" width="385.135" height="212.104"/>
  </clipPath>
  <clipPath id="pabde2a1bc6">
   <rect x="468.065" y="30.624" width="385.135" height="212.104"/>
  </clipPath>
 </defs>
</svg>
